<svg version="1.1" xmlns="http://www.w3.org/2000/svg" xmlns:xlink="http://www.w3.org/1999/xlink" width="3121" height="4300"><defs/><g><g/><g/><g/><g/><g/><g/><g/><g/><g/><g/><g/><g/><g/><g/><g/><g/><g/><g/><g/><g/><g/><g/><g/><g/><g/><g/><g/><g/><g/><g/><g/><g/><g/><g/><g/><g/><g/><g/><g/><g/><g/><g/><g/><g/><g/><g/><g/><g/><g/><g/><g/><g/><g/><g/><g/><g/><g/><g/><g/><g/><g/><g/><g/><g/><g/><g/><g/><g/><g/><g/><g/><g/><g/><g/><g/><g/><g/><g/><g/><g/><g/><g/><g/><g><rect fill="white" stroke="none" x="0" y="0" width="3121" height="4300"/></g><g><text fill="black" stroke="none" font-family="sans-serif" font-size="16.5pt" font-style="normal" font-weight="normal" text-decoration="normal" x="1522.9007274749995" y="28.27246725" text-anchor="start" dominant-baseline="alphabetic" xml:space="preserve">Commit</text></g><g><g><path fill="none" stroke="black" paint-order="fill stroke markers" d=" M 9.424155749999994 58.3355240925 L 834.9183057818749 58.3355240925 L 834.9183057818749 4291.1950792049975 L 9.424155749999994 4291.1950792049975 L 9.424155749999994 58.3355240925" stroke-miterlimit="10" stroke-width="1.5706926250000002" stroke-dasharray=""/></g><g><text fill="black" stroke="none" font-family="sans-serif" font-size="11pt" font-style="normal" font-weight="bold" text-decoration="normal" x="328.3882717815624" y="84.72316019250002" text-anchor="start" dominant-baseline="alphabetic" xml:space="preserve">Client</text><text fill="black" stroke="none" font-family="sans-serif" font-size="11pt" font-style="normal" font-weight="normal" text-decoration="normal" x="370.0557522503124" y="84.72316019250002" text-anchor="start" dominant-baseline="alphabetic" xml:space="preserve"> (NativeAPI.actor.cpp)</text></g><g><path fill="none" stroke="black" paint-order="fill stroke markers" d=" M 975.18904427 58.3355240925 L 1694.4325820031247 58.3355240925 L 1694.4325820031247 4291.1950792049975 L 975.18904427 4291.1950792049975 L 975.18904427 58.3355240925" stroke-miterlimit="10" stroke-width="1.5706926250000002" stroke-dasharray=""/></g><g><text fill="black" stroke="none" font-family="sans-serif" font-size="11pt" font-style="normal" font-weight="bold" text-decoration="normal" x="1179.7644264178123" y="84.72316019250002" text-anchor="start" dominant-baseline="alphabetic" xml:space="preserve">CommitProxy</text><text fill="black" stroke="none" font-family="sans-serif" font-size="11pt" font-style="normal" font-weight="normal" text-decoration="normal" x="1277.2863990740623" y="84.72316019250002" text-anchor="start" dominant-baseline="alphabetic" xml:space="preserve"> (CommitProxyServer.actor.cpp)</text></g><g><path fill="none" stroke="black" paint-order="fill stroke markers" d=" M 1745.118777775625 58.3355240925 L 2122.261115654375 58.3355240925 L 2122.261115654375 4291.1950792049975 L 1745.118777775625 4291.1950792049975 L 1745.118777775625 58.3355240925" stroke-miterlimit="10" stroke-width="1.5706926250000002" stroke-dasharray=""/></g><g><text fill="black" stroke="none" font-family="sans-serif" font-size="11pt" font-style="normal" font-weight="bold" text-decoration="normal" x="1907.428960386875" y="84.72316019250002" text-anchor="start" dominant-baseline="alphabetic" xml:space="preserve">Master</text><text fill="black" stroke="none" font-family="sans-serif" font-size="11pt" font-style="normal" font-weight="normal" text-decoration="normal" x="1955.783452574375" y="84.72316019250002" text-anchor="start" dominant-baseline="alphabetic" xml:space="preserve"> </text></g><g><path fill="none" stroke="black" paint-order="fill stroke markers" d=" M 2192.9444275268747 58.3355240925 L 2339.4050007631245 58.3355240925 L 2339.4050007631245 4291.1950792049975 L 2192.9444275268747 4291.1950792049975 L 2192.9444275268747 58.3355240925" stroke-miterlimit="10" stroke-width="1.5706926250000002" stroke-dasharray=""/></g><g><text fill="black" stroke="none" font-family="sans-serif" font-size="11pt" font-style="normal" font-weight="bold" text-decoration="normal" x="2165.7047434418746" y="84.72316019250002" text-anchor="start" dominant-baseline="alphabetic" xml:space="preserve">Resolver</text><text fill="black" stroke="none" font-family="sans-serif" font-size="11pt" font-style="normal" font-weight="normal" text-decoration="normal" x="2229.0738840668746" y="84.72316019250002" text-anchor="start" dominant-baseline="alphabetic" xml:space="preserve"> (Resolver.actor.cpp)</text></g><g><path fill="none" stroke="black" paint-order="fill stroke markers" d=" M 2486.2089423762495 58.3355240925 L 2626.8174648312493 58.3355240925 L 2626.8174648312493 4291.1950792049975 L 2486.2089423762495 4291.1950792049975 L 2486.2089423762495 58.3355240925" stroke-miterlimit="10" stroke-width="1.5706926250000002" stroke-dasharray=""/></g><g><text fill="black" stroke="none" font-family="sans-serif" font-size="11pt" font-style="normal" font-weight="bold" text-decoration="normal" x="2459.8115434474994" y="84.72316019250002" text-anchor="start" dominant-baseline="alphabetic" xml:space="preserve">TLog</text><text fill="black" stroke="none" font-family="sans-serif" font-size="11pt" font-style="normal" font-weight="normal" text-decoration="normal" x="2496.4619340724994" y="84.72316019250002" text-anchor="start" dominant-baseline="alphabetic" xml:space="preserve"> (TLogServer.actor.cpp)</text></g><g><path fill="none" stroke="black" paint-order="fill stroke markers" d=" M 2774.3208693349993 58.3355240925 L 3013.337594914999 58.3355240925 L 3013.337594914999 4291.1950792049975 L 2774.3208693349993 4291.1950792049975 L 2774.3208693349993 58.3355240925" stroke-miterlimit="10" stroke-width="1.5706926250000002" stroke-dasharray=""/></g><g><text fill="black" stroke="none" font-family="sans-serif" font-size="11pt" font-style="normal" font-weight="bold" text-decoration="normal" x="2755.423470406249" y="84.72316019250002" text-anchor="start" dominant-baseline="alphabetic" xml:space="preserve">Storage Server</text><text fill="black" stroke="none" font-family="sans-serif" font-size="11pt" font-style="normal" font-weight="normal" text-decoration="normal" x="2862.144661812499" y="84.72316019250002" text-anchor="start" dominant-baseline="alphabetic" xml:space="preserve"> (storageserver.actor.cpp)</text></g></g><g><path fill="none" stroke="black" paint-order="fill stroke markers" d=" M 106.54238182124999 153.990704955 L 106.54238182124999 4291.1950792049975" stroke-miterlimit="10" stroke-width="1.5706926250000002" stroke-dasharray="14.498701153846154,6.282770500000001"/><path fill="none" stroke="black" paint-order="fill stroke markers" d=" M 292.0263925575 153.990704955 L 292.0263925575 4291.1950792049975" stroke-miterlimit="10" stroke-width="1.5706926250000002" stroke-dasharray="14.498701153846154,6.282770500000001"/><path fill="none" stroke="black" paint-order="fill stroke markers" d=" M 527.64256046375 153.990704955 L 527.64256046375 4291.1950792049975" stroke-miterlimit="10" stroke-width="1.5706926250000002" stroke-dasharray="14.498701153846154,6.282770500000001"/><path fill="none" stroke="black" paint-order="fill stroke markers" d=" M 766.8222965074999 153.990704955 L 766.8222965074999 4291.1950792049975" stroke-miterlimit="10" stroke-width="1.5706926250000002" stroke-dasharray="14.498701153846154,6.282770500000001"/><path fill="none" stroke="black" paint-order="fill stroke markers" d=" M 1055.077045731875 153.990704955 L 1055.077045731875 4291.1950792049975" stroke-miterlimit="10" stroke-width="1.5706926250000002" stroke-dasharray="14.498701153846154,6.282770500000001"/><path fill="none" stroke="black" paint-order="fill stroke markers" d=" M 1357.402198013125 153.990704955 L 1357.402198013125 4291.1950792049975" stroke-miterlimit="10" stroke-width="1.5706926250000002" stroke-dasharray="14.498701153846154,6.282770500000001"/><path fill="none" stroke="black" paint-order="fill stroke markers" d=" M 1579.0916996818748 153.990704955 L 1579.0916996818748 4291.1950792049975" stroke-miterlimit="10" stroke-width="1.5706926250000002" stroke-dasharray="14.498701153846154,6.282770500000001"/><path fill="none" stroke="black" paint-order="fill stroke markers" d=" M 1810.4389081437498 153.990704955 L 1810.4389081437498 4291.1950792049975" stroke-miterlimit="10" stroke-width="1.5706926250000002" stroke-dasharray="14.498701153846154,6.282770500000001"/><path fill="none" stroke="black" paint-order="fill stroke markers" d=" M 1999.0100770831248 153.990704955 L 1999.0100770831248 4291.1950792049975" stroke-miterlimit="10" stroke-width="1.5706926250000002" stroke-dasharray="14.498701153846154,6.282770500000001"/><path fill="none" stroke="black" paint-order="fill stroke markers" d=" M 2266.1747141449996 153.990704955 L 2266.1747141449996 4291.1950792049975" stroke-miterlimit="10" stroke-width="1.5706926250000002" stroke-dasharray="14.498701153846154,6.282770500000001"/><path fill="none" stroke="black" paint-order="fill stroke markers" d=" M 2556.5132036037494 153.990704955 L 2556.5132036037494 4291.1950792049975" stroke-miterlimit="10" stroke-width="1.5706926250000002" stroke-dasharray="14.498701153846154,6.282770500000001"/><path fill="none" stroke="black" paint-order="fill stroke markers" d=" M 2893.829232124999 153.990704955 L 2893.829232124999 4291.1950792049975" stroke-miterlimit="10" stroke-width="1.5706926250000002" stroke-dasharray="14.498701153846154,6.282770500000001"/></g><g><path fill="none" stroke="none"/><g><path fill="white" stroke="black" paint-order="fill stroke markers" d=" M 18.848311499999994 103.28874702000002 L 194.23645214249999 103.28874702000002 L 194.23645214249999 153.990704955 L 18.848311499999994 153.990704955 L 18.848311499999994 103.28874702000002 Z" stroke-miterlimit="10" stroke-width="3.01572984" stroke-dasharray=""/></g><g><text fill="black" stroke="none" font-family="sans-serif" font-size="11pt" font-style="normal" font-weight="normal" text-decoration="normal" x="39.29872947749999" y="135.14239345500002" text-anchor="start" dominant-baseline="alphabetic" xml:space="preserve">Transaction::commit</text></g><path fill="none" stroke="none"/><g><path fill="white" stroke="black" paint-order="fill stroke markers" d=" M 213.0847636425 103.28874702000002 L 370.9680214725 103.28874702000002 L 370.9680214725 153.990704955 L 213.0847636425 153.990704955 L 213.0847636425 103.28874702000002 Z" stroke-miterlimit="10" stroke-width="3.01572984" stroke-dasharray=""/></g><g><text fill="black" stroke="none" font-family="sans-serif" font-size="11pt" font-style="normal" font-weight="normal" text-decoration="normal" x="233.53518162" y="135.14239345500002" text-anchor="start" dominant-baseline="alphabetic" xml:space="preserve">commitAndWatch</text></g><path fill="none" stroke="none"/><g><path fill="white" stroke="black" paint-order="fill stroke markers" d=" M 473.02832412687496 103.28874702000002 L 582.256796800625 103.28874702000002 L 582.256796800625 153.990704955 L 473.02832412687496 153.990704955 L 473.02832412687496 103.28874702000002 Z" stroke-miterlimit="10" stroke-width="3.01572984" stroke-dasharray=""/></g><g><text fill="black" stroke="none" font-family="sans-serif" font-size="11pt" font-style="normal" font-weight="normal" text-decoration="normal" x="493.478742104375" y="135.14239345500002" text-anchor="start" dominant-baseline="alphabetic" xml:space="preserve">tryCommit</text></g><path fill="none" stroke="none"/><g><path fill="white" stroke="black" paint-order="fill stroke markers" d=" M 708.1504429831249 103.28874702000002 L 825.4941500318749 103.28874702000002 L 825.4941500318749 153.990704955 L 708.1504429831249 153.990704955 L 708.1504429831249 103.28874702000002 Z" stroke-miterlimit="10" stroke-width="3.01572984" stroke-dasharray=""/></g><g><text fill="black" stroke="none" font-family="sans-serif" font-size="11pt" font-style="normal" font-weight="normal" text-decoration="normal" x="728.6008609606249" y="135.14239345500002" text-anchor="start" dominant-baseline="alphabetic" xml:space="preserve">watchValue</text></g><path fill="none" stroke="none"/><g><path fill="white" stroke="black" paint-order="fill stroke markers" d=" M 984.6132000199999 103.28874702000002 L 1125.5408914437498 103.28874702000002 L 1125.5408914437498 153.990704955 L 984.6132000199999 153.990704955 L 984.6132000199999 103.28874702000002 Z" stroke-miterlimit="10" stroke-width="3.01572984" stroke-dasharray=""/></g><g><text fill="black" stroke="none" font-family="sans-serif" font-size="11pt" font-style="normal" font-weight="normal" text-decoration="normal" x="1005.0636179974999" y="135.14239345500002" text-anchor="start" dominant-baseline="alphabetic" xml:space="preserve">commitBatcher</text></g><path fill="none" stroke="none"/><g><path fill="white" stroke="black" paint-order="fill stroke markers" d=" M 1293.607053473125 103.28874702000002 L 1421.197342553125 103.28874702000002 L 1421.197342553125 153.990704955 L 1293.607053473125 153.990704955 L 1293.607053473125 103.28874702000002 Z" stroke-miterlimit="10" stroke-width="3.01572984" stroke-dasharray=""/></g><g><text fill="black" stroke="none" font-family="sans-serif" font-size="11pt" font-style="normal" font-weight="normal" text-decoration="normal" x="1314.057471450625" y="135.14239345500002" text-anchor="start" dominant-baseline="alphabetic" xml:space="preserve">commitBatch</text></g><path fill="none" stroke="none"/><g><path fill="white" stroke="black" paint-order="fill stroke markers" d=" M 1473.174973110625 103.28874702000002 L 1685.008426253125 103.28874702000002 L 1685.008426253125 153.990704955 L 1473.174973110625 153.990704955 L 1473.174973110625 103.28874702000002 Z" stroke-miterlimit="10" stroke-width="3.01572984" stroke-dasharray=""/></g><g><text fill="black" stroke="none" font-family="sans-serif" font-size="11pt" font-style="normal" font-weight="normal" text-decoration="normal" x="1493.6253910881248" y="135.14239345500002" text-anchor="start" dominant-baseline="alphabetic" xml:space="preserve">TagPartitionedLogSystem</text></g><path fill="none" stroke="none"/><g><path fill="white" stroke="black" paint-order="fill stroke markers" d=" M 1754.542933525625 103.28874702000002 L 1866.334882761875 103.28874702000002 L 1866.334882761875 153.990704955 L 1754.542933525625 153.990704955 L 1754.542933525625 103.28874702000002 Z" stroke-miterlimit="10" stroke-width="3.01572984" stroke-dasharray=""/></g><g><text fill="black" stroke="none" font-family="sans-serif" font-size="11pt" font-style="normal" font-weight="normal" text-decoration="normal" x="1774.9933515031248" y="135.14239345500002" text-anchor="start" dominant-baseline="alphabetic" xml:space="preserve">getVersion</text></g><path fill="none" stroke="none"/><g><path fill="white" stroke="black" paint-order="fill stroke markers" d=" M 1885.1831942618749 103.28874702000002 L 2112.836959904375 103.28874702000002 L 2112.836959904375 153.990704955 L 1885.1831942618749 153.990704955 L 1885.1831942618749 103.28874702000002 Z" stroke-miterlimit="10" stroke-width="3.01572984" stroke-dasharray=""/></g><g><text fill="black" stroke="none" font-family="sans-serif" font-size="11pt" font-style="normal" font-weight="normal" text-decoration="normal" x="1905.6336122393748" y="135.14239345500002" text-anchor="start" dominant-baseline="alphabetic" xml:space="preserve">serveLiveCommittedVersion</text></g><path fill="none" stroke="none"/><g><path fill="white" stroke="black" paint-order="fill stroke markers" d=" M 2202.3685832768747 103.28874702000002 L 2329.9808450131245 103.28874702000002 L 2329.9808450131245 153.990704955 L 2202.3685832768747 153.990704955 L 2202.3685832768747 103.28874702000002 Z" stroke-miterlimit="10" stroke-width="3.01572984" stroke-dasharray=""/></g><g><text fill="black" stroke="none" font-family="sans-serif" font-size="11pt" font-style="normal" font-weight="normal" text-decoration="normal" x="2222.8190012543746" y="135.14239345500002" text-anchor="start" dominant-baseline="alphabetic" xml:space="preserve">resolveBatch</text></g><path fill="none" stroke="none"/><g><path fill="white" stroke="black" paint-order="fill stroke markers" d=" M 2495.6330981262495 103.28874702000002 L 2617.3933090812493 103.28874702000002 L 2617.3933090812493 153.990704955 L 2495.6330981262495 153.990704955 L 2495.6330981262495 103.28874702000002 Z" stroke-miterlimit="10" stroke-width="3.01572984" stroke-dasharray=""/></g><g><text fill="black" stroke="none" font-family="sans-serif" font-size="11pt" font-style="normal" font-weight="normal" text-decoration="normal" x="2516.0835161037494" y="135.14239345500002" text-anchor="start" dominant-baseline="alphabetic" xml:space="preserve">tLogCommit</text></g><path fill="none" stroke="none"/><g><path fill="white" stroke="black" paint-order="fill stroke markers" d=" M 2783.7450250849993 103.28874702000002 L 3003.913439164999 103.28874702000002 L 3003.913439164999 153.990704955 L 2783.7450250849993 153.990704955 L 2783.7450250849993 103.28874702000002 Z" stroke-miterlimit="10" stroke-width="3.01572984" stroke-dasharray=""/></g><g><text fill="black" stroke="none" font-family="sans-serif" font-size="11pt" font-style="normal" font-weight="normal" text-decoration="normal" x="2804.195443062499" y="135.14239345500002" text-anchor="start" dominant-baseline="alphabetic" xml:space="preserve">serveWatchValueRequests</text></g></g><g><g><text fill="black" stroke="none" font-family="sans-serif" font-size="11pt" font-style="normal" font-weight="normal" text-decoration="normal" x="199.284387189375" y="208.65080830500003" text-anchor="start" dominant-baseline="alphabetic" xml:space="preserve"></text></g><g><path fill="none" stroke="black" paint-order="fill stroke markers" d=" M 106.54238182124999 216.19013290500004 L 276.5079494225 216.19013290500004" stroke-miterlimit="10" stroke-width="1.5706926250000002" stroke-dasharray=""/><g transform="translate(292.0263925575,216.19013290500004) translate(-292.0263925575,-216.19013290500004)"><path fill="black" stroke="none" paint-order="stroke fill markers" d=" M 276.3194663075 208.33666978000005 L 292.0263925575 216.19013290500004 L 276.3194663075 224.04359603000003 Z"/></g></g><g><text fill="black" stroke="none" font-family="sans-serif" font-size="11pt" font-style="normal" font-weight="normal" text-decoration="normal" x="317.1574745575" y="261.4260805050001" text-anchor="start" dominant-baseline="alphabetic" xml:space="preserve">CommitTransactionRequest</text></g><g><path fill="none" stroke="black" paint-order="fill stroke markers" d=" M 292.0263925575 268.96540510500006 L 512.12411732875 268.96540510500006" stroke-miterlimit="10" stroke-width="1.5706926250000002" stroke-dasharray=""/><g transform="translate(527.64256046375,268.96540510500006) translate(-527.64256046375,-268.96540510500006)"><path fill="black" stroke="none" paint-order="stroke fill markers" d=" M 511.93563421375 261.11194198000004 L 527.64256046375 268.96540510500006 L 511.93563421375 276.8188682300001 Z"/></g></g><path fill="white" stroke="black" paint-order="fill stroke markers" d=" M 527.64256046375 318.91343058000007 L 537.0667162137499 318.91343058000007 M 537.0667162137499 297.2378723550001 L 682.0679611887499 297.2378723550001 L 699.03144153875 314.2013527050001 L 699.03144153875 340.5889888050001 L 537.0667162137499 340.5889888050001 L 537.0667162137499 297.2378723550001 M 682.0679611887499 297.2378723550001 L 682.0679611887499 314.2013527050001 L 699.03144153875 314.2013527050001" stroke-miterlimit="10" stroke-width="1.5706926250000002" stroke-dasharray=""/><g><text fill="green" stroke="none" font-family="sans-serif" font-size="11pt" font-style="italic" font-weight="normal" text-decoration="normal" x="563.45435231375" y="323.62550845500004" text-anchor="start" dominant-baseline="alphabetic" xml:space="preserve">CommitAttachID</text></g><path fill="white" stroke="black" paint-order="fill stroke markers" d=" M 527.64256046375 390.5370142800001 L 537.0667162137499 390.5370142800001 M 537.0667162137499 368.86145605500013 L 740.4346604074999 368.86145605500013 L 757.3981407575 385.82493640500013 L 757.3981407575 412.21257250500014 L 537.0667162137499 412.21257250500014 L 537.0667162137499 368.86145605500013 M 740.4346604074999 368.86145605500013 L 740.4346604074999 385.82493640500013 L 757.3981407575 385.82493640500013" stroke-miterlimit="10" stroke-width="1.5706926250000002" stroke-dasharray=""/><g><text fill="lightblue" stroke="none" font-family="sans-serif" font-size="11pt" font-style="normal" font-weight="normal" text-decoration="normal" x="563.45435231375" y="395.2490921550001" text-anchor="start" dominant-baseline="alphabetic" xml:space="preserve">NativeAPI.commit.Before</text></g><g><text fill="black" stroke="none" font-family="sans-serif" font-size="11pt" font-style="normal" font-weight="normal" text-decoration="normal" x="698.6828011446875" y="457.44852010500017" text-anchor="start" dominant-baseline="alphabetic" xml:space="preserve">CommitTransactionRequest</text></g><g><path fill="none" stroke="black" paint-order="fill stroke markers" d=" M 527.64256046375 464.98784470500016 L 1039.5586025968748 464.98784470500016" stroke-miterlimit="10" stroke-width="1.5706926250000002" stroke-dasharray=""/><g transform="translate(1055.077045731875,464.98784470500016) translate(-1055.077045731875,-464.98784470500016)"><path fill="black" stroke="none" paint-order="stroke fill markers" d=" M 1039.370119481875 457.13438158000014 L 1055.077045731875 464.98784470500016 L 1039.370119481875 472.8413078300002 Z"/></g></g><path fill="white" stroke="black" paint-order="fill stroke markers" d=" M 952.4113334599999 544.1507530050003 L 1157.74275800375 544.1507530050003 L 1157.74275800375 587.5018694550002 L 952.4113334599999 587.5018694550002 L 952.4113334599999 544.1507530050003" stroke-miterlimit="10" stroke-width="1.5706926250000002" stroke-dasharray=""/><g><text fill="black" stroke="none" font-family="sans-serif" font-size="11pt" font-style="normal" font-weight="normal" text-decoration="normal" x="978.7989695599999" y="570.5383891050003" text-anchor="start" dominant-baseline="alphabetic" xml:space="preserve">Batch commit requests</text></g><g><text fill="black" stroke="none" font-family="sans-serif" font-size="11pt" font-style="normal" font-weight="normal" text-decoration="normal" x="1080.2081277318748" y="661.0102843050003" text-anchor="start" dominant-baseline="alphabetic" xml:space="preserve">Batched CommitTransactionRequests</text></g><g><path fill="none" stroke="black" paint-order="fill stroke markers" d=" M 1055.077045731875 668.5496089050002 L 1341.8837548781248 668.5496089050002" stroke-miterlimit="10" stroke-width="1.5706926250000002" stroke-dasharray=""/><g transform="translate(1357.402198013125,668.5496089050002) translate(-1357.402198013125,-668.5496089050002)"><path fill="black" stroke="none" paint-order="stroke fill markers" d=" M 1341.695271763125 660.6961457800003 L 1357.402198013125 668.5496089050002 L 1341.695271763125 676.4030720300002 Z"/></g></g><path fill="white" stroke="black" paint-order="fill stroke markers" d=" M 1357.402198013125 716.0473538850002 L 1366.8263537631249 716.0473538850002 M 1366.8263537631249 696.8220761550002 L 1552.6908799881248 696.8220761550002 L 1569.654360338125 713.7855565050003 L 1569.654360338125 735.2726316150003 L 1366.8263537631249 735.2726316150003 L 1366.8263537631249 696.8220761550002 M 1552.6908799881248 696.8220761550002 L 1552.6908799881248 713.7855565050003 L 1569.654360338125 713.7855565050003" stroke-miterlimit="10" stroke-width="1.5706926250000002" stroke-dasharray=""/><g><text fill="lightblue" stroke="none" font-family="sans-serif" font-size="8.8pt" font-style="normal" font-weight="normal" text-decoration="normal" x="1393.2139898631249" y="719.8170161850003" text-anchor="start" dominant-baseline="alphabetic" xml:space="preserve">CommitProxyServer.batcher</text></g><path fill="white" stroke="black" paint-order="fill stroke markers" d=" M 1286.823888085 763.5450988650002 L 1427.98050794125 763.5450988650002 L 1427.98050794125 806.8962153150003 L 1286.823888085 806.8962153150003 L 1286.823888085 763.5450988650002" stroke-miterlimit="10" stroke-width="1.5706926250000002" stroke-dasharray=""/><g><text fill="black" stroke="none" font-family="sans-serif" font-size="11pt" font-style="normal" font-weight="normal" text-decoration="normal" x="1313.211524185" y="789.9327349650003" text-anchor="start" dominant-baseline="alphabetic" xml:space="preserve">Preresolution</text></g><path fill="white" stroke="black" paint-order="fill stroke markers" d=" M 1357.402198013125 856.8442407900003 L 1366.8263537631249 856.8442407900003 M 1366.8263537631249 835.1686825650004 L 1552.7040635818748 835.1686825650004 L 1569.667543931875 852.1321629150004 L 1569.667543931875 878.5197990150003 L 1366.8263537631249 878.5197990150003 L 1366.8263537631249 835.1686825650004 M 1552.7040635818748 835.1686825650004 L 1552.7040635818748 852.1321629150004 L 1569.667543931875 852.1321629150004" stroke-miterlimit="10" stroke-width="1.5706926250000002" stroke-dasharray=""/><g><text fill="blue" stroke="none" font-family="sans-serif" font-size="11pt" font-style="normal" font-weight="normal" text-decoration="normal" x="1393.2139898631249" y="861.5563186650004" text-anchor="start" dominant-baseline="alphabetic" xml:space="preserve">GettingCommitVersion</text></g><g><text fill="black" stroke="none" font-family="sans-serif" font-size="11pt" font-style="normal" font-weight="normal" text-decoration="normal" x="1493.0453089378125" y="923.7557466150004" text-anchor="start" dominant-baseline="alphabetic" xml:space="preserve">GetCommitVersionRequest</text></g><g><path fill="none" stroke="black" paint-order="fill stroke markers" d=" M 1357.402198013125 931.2950712150003 L 1794.9204650087497 931.2950712150003" stroke-miterlimit="10" stroke-width="1.5706926250000002" stroke-dasharray=""/><g transform="translate(1810.4389081437498,931.2950712150003) translate(-1810.4389081437498,-931.2950712150003)"><path fill="black" stroke="none" paint-order="stroke fill markers" d=" M 1794.73198189375 923.4416080900004 L 1810.4389081437498 931.2950712150003 L 1794.73198189375 939.1485343400003 Z"/></g></g><g><text fill="black" stroke="none" font-family="sans-serif" font-size="11pt" font-style="normal" font-weight="normal" text-decoration="normal" x="1501.8050745628125" y="976.5310188150004" text-anchor="start" dominant-baseline="alphabetic" xml:space="preserve">GetCommitVersionReply</text></g><g><path fill="none" stroke="black" paint-order="fill stroke markers" d=" M 1810.4389081437498 984.0703434150004 L 1372.920641148125 984.0703434150004" stroke-miterlimit="10" stroke-width="1.5706926250000002" stroke-dasharray=""/><g transform="translate(1357.402198013125,984.0703434150004) translate(-1357.402198013125,-984.0703434150004)"><path fill="black" stroke="none" paint-order="stroke fill markers" d=" M 1373.1091242631248 976.2168802900004 L 1357.402198013125 984.0703434150004 L 1373.1091242631248 991.9238065400003 Z"/></g></g><path fill="white" stroke="black" paint-order="fill stroke markers" d=" M 1357.402198013125 1034.0183688900004 L 1366.8263537631249 1034.0183688900004 M 1366.8263537631249 1012.3428106650003 L 1528.5194932693748 1012.3428106650003 L 1545.482973619375 1029.3062910150004 L 1545.482973619375 1055.6939271150004 L 1366.8263537631249 1055.6939271150004 L 1366.8263537631249 1012.3428106650003 M 1528.5194932693748 1012.3428106650003 L 1528.5194932693748 1029.3062910150004 L 1545.482973619375 1029.3062910150004" stroke-miterlimit="10" stroke-width="1.5706926250000002" stroke-dasharray=""/><g><text fill="blue" stroke="none" font-family="sans-serif" font-size="11pt" font-style="normal" font-weight="normal" text-decoration="normal" x="1393.2139898631249" y="1038.7304467650004" text-anchor="start" dominant-baseline="alphabetic" xml:space="preserve">GotCommitVersion</text></g><path fill="white" stroke="black" paint-order="fill stroke markers" d=" M 1303.9186146475 1083.9663943650003 L 1410.88578137875 1083.9663943650003 L 1410.88578137875 1127.3175108150003 L 1303.9186146475 1127.3175108150003 L 1303.9186146475 1083.9663943650003" stroke-miterlimit="10" stroke-width="1.5706926250000002" stroke-dasharray=""/><g><text fill="black" stroke="none" font-family="sans-serif" font-size="11pt" font-style="normal" font-weight="normal" text-decoration="normal" x="1330.3062507475" y="1110.354030465" text-anchor="start" dominant-baseline="alphabetic" xml:space="preserve">Resolve</text></g><g><text fill="black" stroke="none" font-family="sans-serif" font-size="11pt" font-style="normal" font-weight="normal" text-decoration="normal" x="1698.6695595946871" y="1172.5534584150003" text-anchor="start" dominant-baseline="alphabetic" xml:space="preserve">ResolveTransactionBatchRequest</text></g><g><path fill="none" stroke="black" paint-order="fill stroke markers" d=" M 1357.402198013125 1180.0927830150004 L 2250.6562710099997 1180.0927830150004" stroke-miterlimit="10" stroke-width="1.5706926250000002" stroke-dasharray=""/><g transform="translate(2266.1747141449996,1180.0927830150004) translate(-2266.1747141449996,-1180.0927830150004)"><path fill="black" stroke="none" paint-order="stroke fill markers" d=" M 2250.4677878949997 1172.2393198900004 L 2266.1747141449996 1180.0927830150004 L 2250.4677878949997 1187.9462461400003 Z"/></g></g><path fill="white" stroke="black" paint-order="fill stroke markers" d=" M 2266.1747141449996 1230.0408084900002 L 2275.5988698949996 1230.0408084900002 M 2275.5988698949996 1208.3652502650002 L 2355.6049976824997 1208.3652502650002 L 2372.5684780324996 1225.3287306150003 L 2372.5684780324996 1251.7163667150003 L 2275.5988698949996 1251.7163667150003 L 2275.5988698949996 1208.3652502650002 M 2355.6049976824997 1208.3652502650002 L 2355.6049976824997 1225.3287306150003 L 2372.5684780324996 1225.3287306150003" stroke-miterlimit="10" stroke-width="1.5706926250000002" stroke-dasharray=""/><g><text fill="blue" stroke="none" font-family="sans-serif" font-size="11pt" font-style="normal" font-weight="normal" text-decoration="normal" x="2301.986505995" y="1234.752886365" text-anchor="start" dominant-baseline="alphabetic" xml:space="preserve">Before</text></g><path fill="white" stroke="black" paint-order="fill stroke markers" d=" M 2131.6852714043744 1279.9888339650001 L 2400.6641568856244 1279.9888339650001 L 2400.6641568856244 1323.3399504150002 L 2131.6852714043744 1323.3399504150002 L 2131.6852714043744 1279.9888339650001" stroke-miterlimit="10" stroke-width="1.5706926250000002" stroke-dasharray=""/><g><text fill="black" stroke="none" font-family="sans-serif" font-size="11pt" font-style="normal" font-weight="normal" text-decoration="normal" x="2158.0729075043746" y="1306.376470065" text-anchor="start" dominant-baseline="alphabetic" xml:space="preserve">Wait for memory/needed version</text></g><path fill="white" stroke="black" paint-order="fill stroke markers" d=" M 2266.1747141449996 1373.28797589 L 2275.5988698949996 1373.28797589 M 2275.5988698949996 1351.612417665 L 2459.8213062762497 1351.612417665 L 2476.7847866262496 1368.5758980150001 L 2476.7847866262496 1394.9635341150001 L 2275.5988698949996 1394.9635341150001 L 2275.5988698949996 1351.612417665 M 2459.8213062762497 1351.612417665 L 2459.8213062762497 1368.5758980150001 L 2476.7847866262496 1368.5758980150001" stroke-miterlimit="10" stroke-width="1.5706926250000002" stroke-dasharray=""/><g><text fill="blue" stroke="none" font-family="sans-serif" font-size="11pt" font-style="normal" font-weight="normal" text-decoration="normal" x="2301.986505995" y="1378.0000537649998" text-anchor="start" dominant-baseline="alphabetic" xml:space="preserve">AfterQueueSizeCheck</text></g><path fill="white" stroke="black" paint-order="fill stroke markers" d=" M 2159.2060233574994 1423.236001365 L 2373.1434049324994 1423.236001365 L 2373.1434049324994 1466.587117815 L 2159.2060233574994 1466.587117815 L 2159.2060233574994 1423.236001365" stroke-miterlimit="10" stroke-width="1.5706926250000002" stroke-dasharray=""/><g><text fill="black" stroke="none" font-family="sans-serif" font-size="11pt" font-style="normal" font-weight="normal" text-decoration="normal" x="2185.5936594574996" y="1449.6236374649998" text-anchor="start" dominant-baseline="alphabetic" xml:space="preserve">Wait for resolver version</text></g><path fill="white" stroke="black" paint-order="fill stroke markers" d=" M 2266.1747141449996 1516.53514329 L 2275.5988698949996 1516.53514329 M 2275.5988698949996 1494.859585065 L 2394.7675953387497 1494.859585065 L 2411.7310756887496 1511.823065415 L 2411.7310756887496 1538.210701515 L 2275.5988698949996 1538.210701515 L 2275.5988698949996 1494.859585065 M 2394.7675953387497 1494.859585065 L 2394.7675953387497 1511.823065415 L 2411.7310756887496 1511.823065415" stroke-miterlimit="10" stroke-width="1.5706926250000002" stroke-dasharray=""/><g><text fill="blue" stroke="none" font-family="sans-serif" font-size="11pt" font-style="normal" font-weight="normal" text-decoration="normal" x="2301.986505995" y="1521.2472211649997" text-anchor="start" dominant-baseline="alphabetic" xml:space="preserve">AfterOrderer</text></g><path fill="white" stroke="black" paint-order="fill stroke markers" d=" M 2171.0053397637494 1566.4831687649998 L 2361.3440885262494 1566.4831687649998 L 2361.3440885262494 1609.834285215 L 2171.0053397637494 1609.834285215 L 2171.0053397637494 1566.4831687649998" stroke-miterlimit="10" stroke-width="1.5706926250000002" stroke-dasharray=""/><g><text fill="black" stroke="none" font-family="sans-serif" font-size="11pt" font-style="normal" font-weight="normal" text-decoration="normal" x="2197.3929758637496" y="1592.8708048649996" text-anchor="start" dominant-baseline="alphabetic" xml:space="preserve">Resolve the conflicts</text></g><path fill="white" stroke="black" paint-order="fill stroke markers" d=" M 2266.1747141449996 1659.7823106899998 L 2275.5988698949996 1659.7823106899998 M 2275.5988698949996 1638.1067524649998 L 2343.0879078387497 1638.1067524649998 L 2360.0513881887496 1655.0702328149998 L 2360.0513881887496 1681.4578689149998 L 2275.5988698949996 1681.4578689149998 L 2275.5988698949996 1638.1067524649998 M 2343.0879078387497 1638.1067524649998 L 2343.0879078387497 1655.0702328149998 L 2360.0513881887496 1655.0702328149998" stroke-miterlimit="10" stroke-width="1.5706926250000002" stroke-dasharray=""/><g><text fill="blue" stroke="none" font-family="sans-serif" font-size="11pt" font-style="normal" font-weight="normal" text-decoration="normal" x="2301.986505995" y="1664.4943885649996" text-anchor="start" dominant-baseline="alphabetic" xml:space="preserve">After</text></g><g><text fill="black" stroke="none" font-family="sans-serif" font-size="11pt" font-style="normal" font-weight="normal" text-decoration="normal" x="1707.4293252196871" y="1726.6938165149998" text-anchor="start" dominant-baseline="alphabetic" xml:space="preserve">ResolveTransactionBatchReply</text></g><g><path fill="none" stroke="black" paint-order="fill stroke markers" d=" M 2266.1747141449996 1734.2331411149999 L 1372.920641148125 1734.2331411149999" stroke-miterlimit="10" stroke-width="1.5706926250000002" stroke-dasharray="7.5393246000000005"/><g transform="translate(1357.402198013125,1734.2331411149999) translate(-1357.402198013125,-1734.2331411149999)"><path fill="black" stroke="none" paint-order="stroke fill markers" d=" M 1373.1091242631248 1726.37967799 L 1357.402198013125 1734.2331411149999 L 1373.1091242631248 1742.0866042399998 Z"/></g></g><path fill="white" stroke="black" paint-order="fill stroke markers" d=" M 1357.402198013125 1784.1811665899997 L 1366.8263537631249 1784.1811665899997 M 1366.8263537631249 1762.5056083649997 L 1541.8715440506248 1762.5056083649997 L 1558.835024400625 1779.4690887149998 L 1558.835024400625 1805.8567248149998 L 1366.8263537631249 1805.8567248149998 L 1366.8263537631249 1762.5056083649997 M 1541.8715440506248 1762.5056083649997 L 1541.8715440506248 1779.4690887149998 L 1558.835024400625 1779.4690887149998" stroke-miterlimit="10" stroke-width="1.5706926250000002" stroke-dasharray=""/><g><text fill="blue" stroke="none" font-family="sans-serif" font-size="11pt" font-style="normal" font-weight="normal" text-decoration="normal" x="1393.2139898631249" y="1788.8932444649995" text-anchor="start" dominant-baseline="alphabetic" xml:space="preserve">ProcessingMutations</text></g><path fill="white" stroke="black" paint-order="fill stroke markers" d=" M 1253.883214256875 1834.1291920649996 L 1460.921181769375 1834.1291920649996 L 1460.921181769375 1877.4803085149997 L 1253.883214256875 1877.4803085149997 L 1253.883214256875 1834.1291920649996" stroke-miterlimit="10" stroke-width="1.5706926250000002" stroke-dasharray=""/><g><text fill="black" stroke="none" font-family="sans-serif" font-size="11pt" font-style="normal" font-weight="normal" text-decoration="normal" x="1280.270850356875" y="1860.5168281649994" text-anchor="start" dominant-baseline="alphabetic" xml:space="preserve">Calculate the metadata</text></g><path fill="white" stroke="black" paint-order="fill stroke markers" d=" M 1161.35269667875 1905.7527757649996 L 1553.4516993475 1905.7527757649996 L 1553.4516993475 1949.1038922149996 L 1161.35269667875 1949.1038922149996 L 1161.35269667875 1905.7527757649996" stroke-miterlimit="10" stroke-width="1.5706926250000002" stroke-dasharray=""/><g><text fill="black" stroke="none" font-family="sans-serif" font-size="11pt" font-style="normal" font-weight="normal" text-decoration="normal" x="1187.74033277875" y="1932.1404118649994" text-anchor="start" dominant-baseline="alphabetic" xml:space="preserve">Determine which transactions should be committed</text></g><path fill="white" stroke="black" paint-order="fill stroke markers" d=" M 1199.284825585 1977.3763594649995 L 1515.51957044125 1977.3763594649995 L 1515.51957044125 2020.7274759149996 L 1199.284825585 2020.7274759149996 L 1199.284825585 1977.3763594649995" stroke-miterlimit="10" stroke-width="1.5706926250000002" stroke-dasharray=""/><g><text fill="black" stroke="none" font-family="sans-serif" font-size="11pt" font-style="normal" font-weight="normal" text-decoration="normal" x="1225.672461685" y="2003.7639955649993" text-anchor="start" dominant-baseline="alphabetic" xml:space="preserve">Assign storage server tags to mutations</text></g><g><text fill="black" stroke="none" font-family="sans-serif" font-size="11pt" font-style="normal" font-weight="normal" text-decoration="normal" x="1561.9012059074998" y="2116.853864564999" text-anchor="start" dominant-baseline="alphabetic" xml:space="preserve">GetRawCommittedVersionRequest</text></g><g><path fill="none" stroke="black" paint-order="fill stroke markers" d=" M 1357.402198013125 2124.3931891649995 L 1983.4916339481247 2124.3931891649995" stroke-miterlimit="10" stroke-width="1.5706926250000002" stroke-dasharray=""/><g transform="translate(1999.0100770831248,2124.3931891649995) translate(-1999.0100770831248,-2124.3931891649995)"><path fill="black" stroke="none" paint-order="stroke fill markers" d=" M 1983.3031508331248 2116.5397260399996 L 1999.0100770831248 2124.3931891649995 L 1983.3031508331248 2132.2466522899995 Z"/></g></g><g><text fill="black" stroke="none" font-family="sans-serif" font-size="11pt" font-style="normal" font-weight="normal" text-decoration="normal" x="1570.6609715324998" y="2169.629136764999" text-anchor="start" dominant-baseline="alphabetic" xml:space="preserve">GetRawCommittedVersionReply</text></g><g><path fill="none" stroke="black" paint-order="fill stroke markers" d=" M 1999.0100770831248 2177.1684613649995 L 1372.920641148125 2177.1684613649995" stroke-miterlimit="10" stroke-width="1.5706926250000002" stroke-dasharray="7.5393246000000005"/><g transform="translate(1357.402198013125,2177.1684613649995) translate(-1357.402198013125,-2177.1684613649995)"><path fill="black" stroke="none" paint-order="stroke fill markers" d=" M 1373.1091242631248 2169.3149982399996 L 1357.402198013125 2177.1684613649995 L 1373.1091242631248 2185.0219244899995 Z"/></g></g><path fill="white" stroke="black" paint-order="fill stroke markers" d=" M 1357.402198013125 2255.3889540899995 L 1366.8263537631249 2255.3889540899995 M 1366.8263537631249 2233.7133958649993 L 1529.3324815506248 2233.7133958649993 L 1546.295961900625 2250.676876214999 L 1546.295961900625 2277.0645123149993 L 1366.8263537631249 2277.0645123149993 L 1366.8263537631249 2233.7133958649993 M 1529.3324815506248 2233.7133958649993 L 1529.3324815506248 2250.676876214999 L 1546.295961900625 2250.676876214999" stroke-miterlimit="10" stroke-width="1.5706926250000002" stroke-dasharray=""/><g><text fill="blue" stroke="none" font-family="sans-serif" font-size="11pt" font-style="normal" font-weight="normal" text-decoration="normal" x="1393.2139898631249" y="2260.1010319649995" text-anchor="start" dominant-baseline="alphabetic" xml:space="preserve">AfterStoreCommits</text></g><g><text fill="black" stroke="none" font-family="sans-serif" font-size="11pt" font-style="normal" font-weight="normal" text-decoration="normal" x="1393.6094976756249" y="2322.300459914999" text-anchor="start" dominant-baseline="alphabetic" xml:space="preserve">Version, LogPushData</text></g><g><path fill="none" stroke="black" paint-order="fill stroke markers" d=" M 1357.402198013125 2329.8397845149993 L 1563.5732565468747 2329.8397845149993" stroke-miterlimit="10" stroke-width="1.5706926250000002" stroke-dasharray=""/><g transform="translate(1579.0916996818748,2329.8397845149993) translate(-1579.0916996818748,-2329.8397845149993)"><path fill="black" stroke="none" paint-order="stroke fill markers" d=" M 1563.384773431875 2321.9863213899994 L 1579.0916996818748 2329.8397845149993 L 1563.384773431875 2337.6932476399993 Z"/></g></g><g><text fill="black" stroke="none" font-family="sans-serif" font-size="11pt" font-style="normal" font-weight="normal" text-decoration="normal" x="1996.9406352365622" y="2375.075732114999" text-anchor="start" dominant-baseline="alphabetic" xml:space="preserve">TLogCommitRequest</text></g><g><path fill="none" stroke="black" paint-order="fill stroke markers" d=" M 1579.0916996818748 2382.6150567149994 L 2540.9947604687495 2382.6150567149994" stroke-miterlimit="10" stroke-width="1.5706926250000002" stroke-dasharray=""/><g transform="translate(2556.5132036037494,2382.6150567149994) translate(-2556.5132036037494,-2382.6150567149994)"><path fill="black" stroke="none" paint-order="stroke fill markers" d=" M 2540.8062773537495 2374.7615935899994 L 2556.5132036037494 2382.6150567149994 L 2540.8062773537495 2390.4685198399993 Z"/></g></g><path fill="white" stroke="black" paint-order="fill stroke markers" d=" M 2556.5132036037494 2432.5630821899995 L 2565.9373593537493 2432.5630821899995 M 2565.9373593537493 2410.887523964999 L 2710.9386043287495 2410.887523964999 L 2727.9020846787494 2427.851004314999 L 2727.9020846787494 2454.2386404149993 L 2565.9373593537493 2454.2386404149993 L 2565.9373593537493 2410.887523964999 M 2710.9386043287495 2410.887523964999 L 2710.9386043287495 2427.851004314999 L 2727.9020846787494 2427.851004314999" stroke-miterlimit="10" stroke-width="1.5706926250000002" stroke-dasharray=""/><g><text fill="green" stroke="none" font-family="sans-serif" font-size="11pt" font-style="italic" font-weight="normal" text-decoration="normal" x="2592.3249954537496" y="2437.2751600649995" text-anchor="start" dominant-baseline="alphabetic" xml:space="preserve">CommitAttachID</text></g><path fill="white" stroke="black" paint-order="fill stroke markers" d=" M 2556.5132036037494 2504.1866658899994 L 2565.9373593537493 2504.1866658899994 M 2565.9373593537493 2482.511107664999 L 2747.9332332349995 2482.511107664999 L 2764.8967135849994 2499.474588014999 L 2764.8967135849994 2525.862224114999 L 2565.9373593537493 2525.862224114999 L 2565.9373593537493 2482.511107664999 M 2747.9332332349995 2482.511107664999 L 2747.9332332349995 2499.474588014999 L 2764.8967135849994 2499.474588014999" stroke-miterlimit="10" stroke-width="1.5706926250000002" stroke-dasharray=""/><g><text fill="blue" stroke="none" font-family="sans-serif" font-size="11pt" font-style="normal" font-weight="normal" text-decoration="normal" x="2592.3249954537496" y="2508.8987437649994" text-anchor="start" dominant-baseline="alphabetic" xml:space="preserve">BeforeWaitForVersion</text></g><path fill="white" stroke="black" paint-order="fill stroke markers" d=" M 2465.793292113124 2554.134691364999 L 2647.233115094374 2554.134691364999 L 2647.233115094374 2597.485807814999 L 2465.793292113124 2597.485807814999 L 2465.793292113124 2554.134691364999" stroke-miterlimit="10" stroke-width="1.5706926250000002" stroke-dasharray=""/><g><text fill="black" stroke="none" font-family="sans-serif" font-size="11pt" font-style="normal" font-weight="normal" text-decoration="normal" x="2492.1809282131244" y="2580.5223274649993" text-anchor="start" dominant-baseline="alphabetic" xml:space="preserve">Wait for the version</text></g><path fill="white" stroke="black" paint-order="fill stroke markers" d=" M 2556.5132036037494 2647.4338332899993 L 2565.9373593537493 2647.4338332899993 M 2565.9373593537493 2625.758275064999 L 2645.9434871412495 2625.758275064999 L 2662.9069674912494 2642.721755414999 L 2662.9069674912494 2669.109391514999 L 2565.9373593537493 2669.109391514999 L 2565.9373593537493 2625.758275064999 M 2645.9434871412495 2625.758275064999 L 2645.9434871412495 2642.721755414999 L 2662.9069674912494 2642.721755414999" stroke-miterlimit="10" stroke-width="1.5706926250000002" stroke-dasharray=""/><g><text fill="blue" stroke="none" font-family="sans-serif" font-size="11pt" font-style="normal" font-weight="normal" text-decoration="normal" x="2592.3249954537496" y="2652.1459111649992" text-anchor="start" dominant-baseline="alphabetic" xml:space="preserve">Before</text></g><path fill="white" stroke="black" paint-order="fill stroke markers" d=" M 2473.439776488124 2697.381858764999 L 2639.586630719374 2697.381858764999 L 2639.586630719374 2740.732975214999 L 2473.439776488124 2740.732975214999 L 2473.439776488124 2697.381858764999" stroke-miterlimit="10" stroke-width="1.5706926250000002" stroke-dasharray=""/><g><text fill="black" stroke="none" font-family="sans-serif" font-size="11pt" font-style="normal" font-weight="normal" text-decoration="normal" x="2499.8274125881244" y="2723.769494864999" text-anchor="start" dominant-baseline="alphabetic" xml:space="preserve">Store the commit</text></g><path fill="white" stroke="black" paint-order="fill stroke markers" d=" M 2420.903155394374 2769.005442464999 L 2692.123251813124 2769.005442464999 L 2692.123251813124 2812.356558914999 L 2420.903155394374 2812.356558914999 L 2420.903155394374 2769.005442464999" stroke-miterlimit="10" stroke-width="1.5706926250000002" stroke-dasharray=""/><g><text fill="black" stroke="none" font-family="sans-serif" font-size="11pt" font-style="normal" font-weight="normal" text-decoration="normal" x="2447.2907914943744" y="2795.393078564999" text-anchor="start" dominant-baseline="alphabetic" xml:space="preserve">Put commit into persistent queue</text></g><path fill="white" stroke="black" paint-order="fill stroke markers" d=" M 2556.5132036037494 2862.304584389999 L 2565.9373593537493 2862.304584389999 M 2565.9373593537493 2840.629026164999 L 2719.2808894849995 2840.629026164999 L 2736.2443698349994 2857.5925065149986 L 2736.2443698349994 2883.980142614999 L 2565.9373593537493 2883.980142614999 L 2565.9373593537493 2840.629026164999 M 2719.2808894849995 2840.629026164999 L 2719.2808894849995 2857.5925065149986 L 2736.2443698349994 2857.5925065149986" stroke-miterlimit="10" stroke-width="1.5706926250000002" stroke-dasharray=""/><g><text fill="blue" stroke="none" font-family="sans-serif" font-size="11pt" font-style="normal" font-weight="normal" text-decoration="normal" x="2592.3249954537496" y="2867.016662264999" text-anchor="start" dominant-baseline="alphabetic" xml:space="preserve">AfterTLogCommit</text></g><path fill="white" stroke="black" paint-order="fill stroke markers" d=" M 2399.098956175624 2912.2526098649987 L 2713.927451031874 2912.2526098649987 L 2713.927451031874 2955.6037263149988 L 2399.098956175624 2955.6037263149988 L 2399.098956175624 2912.2526098649987" stroke-miterlimit="10" stroke-width="1.5706926250000002" stroke-dasharray=""/><g><text fill="black" stroke="none" font-family="sans-serif" font-size="11pt" font-style="normal" font-weight="normal" text-decoration="normal" x="2425.4865922756244" y="2938.640245964999" text-anchor="start" dominant-baseline="alphabetic" xml:space="preserve">Wait all prior message being committed</text></g><path fill="white" stroke="black" paint-order="fill stroke markers" d=" M 2556.5132036037494 3005.551751789999 L 2565.9373593537493 3005.551751789999 M 2565.9373593537493 2983.8761935649986 L 2633.4263972974995 2983.8761935649986 L 2650.3898776474994 3000.8396739149985 L 2650.3898776474994 3027.2273100149987 L 2565.9373593537493 3027.2273100149987 L 2565.9373593537493 2983.8761935649986 M 2633.4263972974995 2983.8761935649986 L 2633.4263972974995 3000.8396739149985 L 2650.3898776474994 3000.8396739149985" stroke-miterlimit="10" stroke-width="1.5706926250000002" stroke-dasharray=""/><g><text fill="blue" stroke="none" font-family="sans-serif" font-size="11pt" font-style="normal" font-weight="normal" text-decoration="normal" x="2592.3249954537496" y="3010.263829664999" text-anchor="start" dominant-baseline="alphabetic" xml:space="preserve">After</text></g><g><text fill="black" stroke="none" font-family="sans-serif" font-size="11pt" font-style="normal" font-weight="normal" text-decoration="normal" x="2005.7004008615622" y="3072.4632576149984" text-anchor="start" dominant-baseline="alphabetic" xml:space="preserve">TLogCommitReply</text></g><g><path fill="none" stroke="black" paint-order="fill stroke markers" d=" M 2556.5132036037494 3080.0025822149987 L 1594.610142816875 3080.0025822149987" stroke-miterlimit="10" stroke-width="1.5706926250000002" stroke-dasharray="7.5393246000000005"/><g transform="translate(1579.0916996818748,3080.0025822149987) translate(-1579.0916996818748,-3080.0025822149987)"><path fill="black" stroke="none" paint-order="stroke fill markers" d=" M 1594.7986259318748 3072.1491190899987 L 1579.0916996818748 3080.0025822149987 L 1594.7986259318748 3087.8560453399987 Z"/></g></g><g><text fill="black" stroke="none" font-family="sans-serif" font-size="11pt" font-style="normal" font-weight="normal" text-decoration="normal" x="1424.0635992381249" y="3125.2385298149984" text-anchor="start" dominant-baseline="alphabetic" xml:space="preserve">Version (min)</text></g><g><path fill="none" stroke="black" paint-order="fill stroke markers" d=" M 1579.0916996818748 3132.7778544149987 L 1372.920641148125 3132.7778544149987" stroke-miterlimit="10" stroke-width="1.5706926250000002" stroke-dasharray=""/><g transform="translate(1357.402198013125,3132.7778544149987) translate(-1357.402198013125,-3132.7778544149987)"><path fill="black" stroke="none" paint-order="stroke fill markers" d=" M 1373.1091242631248 3124.9243912899988 L 1357.402198013125 3132.7778544149987 L 1373.1091242631248 3140.6313175399987 Z"/></g></g><path fill="white" stroke="black" paint-order="fill stroke markers" d=" M 1357.402198013125 3182.725879889999 L 1366.8263537631249 3182.725879889999 M 1366.8263537631249 3161.0503216649986 L 1493.5317003006248 3161.0503216649986 L 1510.495180650625 3178.0138020149984 L 1510.495180650625 3204.4014381149987 L 1366.8263537631249 3204.4014381149987 L 1366.8263537631249 3161.0503216649986 M 1493.5317003006248 3161.0503216649986 L 1493.5317003006248 3178.0138020149984 L 1510.495180650625 3178.0138020149984" stroke-miterlimit="10" stroke-width="1.5706926250000002" stroke-dasharray=""/><g><text fill="black" stroke="none" font-family="sans-serif" font-size="11pt" font-style="normal" font-weight="normal" text-decoration="normal" x="1393.2139898631249" y="3187.437957764999" text-anchor="start" dominant-baseline="alphabetic" xml:space="preserve">AfterLogPush</text></g><g><text fill="black" stroke="none" font-family="sans-serif" font-size="11pt" font-style="normal" font-weight="normal" text-decoration="normal" x="909.1898597071875" y="3249.6373857149983" text-anchor="start" dominant-baseline="alphabetic" xml:space="preserve">CommitID</text></g><g><path fill="none" stroke="black" paint-order="fill stroke markers" d=" M 1357.402198013125 3257.1767103149987 L 543.16100359875 3257.1767103149987" stroke-miterlimit="10" stroke-width="1.5706926250000002" stroke-dasharray="7.5393246000000005"/><g transform="translate(527.64256046375,3257.1767103149987) translate(-527.64256046375,-3257.1767103149987)"><path fill="black" stroke="none" paint-order="stroke fill markers" d=" M 543.34948671375 3249.3232471899987 L 527.64256046375 3257.1767103149987 L 543.34948671375 3265.0301734399986 Z"/></g></g><path fill="white" stroke="black" paint-order="fill stroke markers" d=" M 527.64256046375 3304.6744552949986 L 537.0667162137499 3304.6744552949986 M 537.0667162137499 3285.4491775649985 L 696.9097580637499 3285.4491775649985 L 713.87323841375 3302.4126579149984 L 713.87323841375 3323.8997330249986 L 537.0667162137499 3323.8997330249986 L 537.0667162137499 3285.4491775649985 M 696.9097580637499 3285.4491775649985 L 696.9097580637499 3302.4126579149984 L 713.87323841375 3302.4126579149984" stroke-miterlimit="10" stroke-width="1.5706926250000002" stroke-dasharray=""/><g><text fill="lightblue" stroke="none" font-family="sans-serif" font-size="8.8pt" font-style="normal" font-weight="normal" text-decoration="normal" x="563.45435231375" y="3308.4441175949987" text-anchor="start" dominant-baseline="alphabetic" xml:space="preserve">NativeAPI.commit.After</text></g><g><text fill="black" stroke="none" font-family="sans-serif" font-size="11pt" font-style="normal" font-weight="normal" text-decoration="normal" x="409.834476510625" y="3369.1356806249983" text-anchor="start" dominant-baseline="alphabetic" xml:space="preserve"></text></g><g><path fill="none" stroke="black" paint-order="fill stroke markers" d=" M 527.64256046375 3376.6750052249986 L 307.5448356925 3376.6750052249986" stroke-miterlimit="10" stroke-width="1.5706926250000002" stroke-dasharray="7.5393246000000005"/><g transform="translate(292.0263925575,3376.6750052249986) translate(-292.0263925575,-3376.6750052249986)"><path fill="black" stroke="none" paint-order="stroke fill markers" d=" M 307.7333188075 3368.8215420999986 L 292.0263925575 3376.6750052249986 L 307.7333188075 3384.5284683499985 Z"/></g></g><g><text fill="black" stroke="none" font-family="sans-serif" font-size="11pt" font-style="normal" font-weight="normal" text-decoration="normal" x="504.40481328249996" y="3421.9109528249983" text-anchor="start" dominant-baseline="alphabetic" xml:space="preserve">Version</text></g><g><path fill="none" stroke="black" paint-order="fill stroke markers" d=" M 292.0263925575 3429.4502774249986 L 751.3038533724999 3429.4502774249986" stroke-miterlimit="10" stroke-width="1.5706926250000002" stroke-dasharray=""/><g transform="translate(766.8222965074999,3429.4502774249986) translate(-766.8222965074999,-3429.4502774249986)"><path fill="black" stroke="none" paint-order="stroke fill markers" d=" M 751.1153702574999 3421.5968142999986 L 766.8222965074999 3429.4502774249986 L 751.1153702574999 3437.3037405499986 Z"/></g></g><path fill="white" stroke="black" paint-order="fill stroke markers" d=" M 766.8222965074999 3479.3983028999987 L 776.2464522574999 3479.3983028999987 M 776.2464522574999 3457.7227446749985 L 948.8014081699998 3457.7227446749985 L 965.7648885199999 3474.6862250249983 L 965.7648885199999 3501.0738611249985 L 776.2464522574999 3501.0738611249985 L 776.2464522574999 3457.7227446749985 M 948.8014081699998 3457.7227446749985 L 948.8014081699998 3474.6862250249983 L 965.7648885199999 3474.6862250249983" stroke-miterlimit="10" stroke-width="1.5706926250000002" stroke-dasharray=""/><g><text fill="green" stroke="none" font-family="sans-serif" font-size="11pt" font-style="italic" font-weight="normal" text-decoration="normal" x="802.6340883574999" y="3484.1103807749987" text-anchor="start" dominant-baseline="alphabetic" xml:space="preserve">WatchValueAttachID</text></g><path fill="white" stroke="black" paint-order="fill stroke markers" d=" M 766.8222965074999 3551.0218865999987 L 776.2464522574999 3551.0218865999987 M 776.2464522574999 3529.3463283749984 L 856.2525800449998 3529.3463283749984 L 873.2160603949999 3546.309808724998 L 873.2160603949999 3572.6974448249985 L 776.2464522574999 3572.6974448249985 L 776.2464522574999 3529.3463283749984 M 856.2525800449998 3529.3463283749984 L 856.2525800449998 3546.309808724998 L 873.2160603949999 3546.309808724998" stroke-miterlimit="10" stroke-width="1.5706926250000002" stroke-dasharray=""/><g><text fill="blue" stroke="none" font-family="sans-serif" font-size="11pt" font-style="normal" font-weight="normal" text-decoration="normal" x="802.6340883574999" y="3555.7339644749986" text-anchor="start" dominant-baseline="alphabetic" xml:space="preserve">Before</text></g><g><text fill="black" stroke="none" font-family="sans-serif" font-size="11pt" font-style="normal" font-weight="normal" text-decoration="normal" x="1762.7818190037494" y="3617.933392424998" text-anchor="start" dominant-baseline="alphabetic" xml:space="preserve">WatchValueRequest</text></g><g><path fill="none" stroke="black" paint-order="fill stroke markers" d=" M 766.8222965074999 3625.4727170249985 L 2878.3107889899993 3625.4727170249985" stroke-miterlimit="10" stroke-width="1.5706926250000002" stroke-dasharray=""/><g transform="translate(2893.829232124999,3625.4727170249985) translate(-2893.829232124999,-3625.4727170249985)"><path fill="black" stroke="none" paint-order="stroke fill markers" d=" M 2878.1223058749993 3617.6192538999985 L 2893.829232124999 3625.4727170249985 L 2878.1223058749993 3633.3261801499984 Z"/></g></g><path fill="white" stroke="black" paint-order="fill stroke markers" d=" M 2893.829232124999 3672.9704620049984 L 2903.253387874999 3672.9704620049984 M 2903.253387874999 3653.7451842749983 L 3048.2429140999993 3653.7451842749983 L 3065.206394449999 3670.708664624998 L 3065.206394449999 3692.1957397349984 L 2903.253387874999 3692.1957397349984 L 2903.253387874999 3653.7451842749983 M 3048.2429140999993 3653.7451842749983 L 3048.2429140999993 3670.708664624998 L 3065.206394449999 3670.708664624998" stroke-miterlimit="10" stroke-width="1.5706926250000002" stroke-dasharray=""/><g><text fill="lightblue" stroke="none" font-family="sans-serif" font-size="8.8pt" font-style="normal" font-weight="normal" text-decoration="normal" x="2929.6410239749994" y="3676.7401243049985" text-anchor="start" dominant-baseline="alphabetic" xml:space="preserve">watchValueQ.Before</text></g><path fill="white" stroke="black" paint-order="fill stroke markers" d=" M 2772.805365556249 3720.4682069849982 L 3014.853098693749 3720.4682069849982 L 3014.853098693749 3763.8193234349983 L 2772.805365556249 3763.8193234349983 L 2772.805365556249 3720.4682069849982" stroke-miterlimit="10" stroke-width="1.5706926250000002" stroke-dasharray=""/><g><text fill="black" stroke="none" font-family="sans-serif" font-size="11pt" font-style="normal" font-weight="normal" text-decoration="normal" x="2799.193001656249" y="3746.8558430849985" text-anchor="start" dominant-baseline="alphabetic" xml:space="preserve">Ensure version is not too old</text></g><path fill="white" stroke="black" paint-order="fill stroke markers" d=" M 2893.829232124999 3811.317068414998 L 2903.253387874999 3811.317068414998 M 2903.253387874999 3792.091790684998 L 3078.2604922249993 3792.091790684998 L 3095.223972574999 3809.055271034998 L 3095.223972574999 3830.542346144998 L 2903.253387874999 3830.542346144998 L 2903.253387874999 3792.091790684998 M 3078.2604922249993 3792.091790684998 L 3078.2604922249993 3809.055271034998 L 3095.223972574999 3809.055271034998" stroke-miterlimit="10" stroke-width="1.5706926250000002" stroke-dasharray=""/><g><text fill="lightblue" stroke="none" font-family="sans-serif" font-size="8.8pt" font-style="normal" font-weight="normal" text-decoration="normal" x="2929.6410239749994" y="3815.0867307149983" text-anchor="start" dominant-baseline="alphabetic" xml:space="preserve">watchValueQ.AfterVersion</text></g><path fill="white" stroke="black" paint-order="fill stroke markers" d=" M 2759.189642899999 3909.705254444998 L 3028.468821349999 3909.705254444998 L 3028.468821349999 3953.056370894998 L 2759.189642899999 3953.056370894998 L 2759.189642899999 3909.705254444998" stroke-miterlimit="10" stroke-width="1.5706926250000002" stroke-dasharray=""/><g><text fill="black" stroke="none" font-family="sans-serif" font-size="11pt" font-style="normal" font-weight="normal" text-decoration="normal" x="2785.577278999999" y="3936.092890544998" text-anchor="start" dominant-baseline="alphabetic" xml:space="preserve">Check storageserver::getValueQ</text></g><path fill="white" stroke="black" paint-order="fill stroke markers" d=" M 2893.829232124999 4000.554115874998 L 2903.253387874999 4000.554115874998 M 2903.253387874999 3981.328838144998 L 3066.9167422249993 3981.328838144998 L 3083.880222574999 3998.2923184949977 L 3083.880222574999 4019.779393604998 L 2903.253387874999 4019.779393604998 L 2903.253387874999 3981.328838144998 M 3066.9167422249993 3981.328838144998 L 3066.9167422249993 3998.2923184949977 L 3083.880222574999 3998.2923184949977" stroke-miterlimit="10" stroke-width="1.5706926250000002" stroke-dasharray=""/><g><text fill="lightblue" stroke="none" font-family="sans-serif" font-size="8.8pt" font-style="normal" font-weight="normal" text-decoration="normal" x="2929.6410239749994" y="4004.323778174998" text-anchor="start" dominant-baseline="alphabetic" xml:space="preserve">watchValueQ.AfterRead</text></g><g><text fill="black" stroke="none" font-family="sans-serif" font-size="11pt" font-style="normal" font-weight="normal" text-decoration="normal" x="1805.3062330662494" y="4093.2878084549975" text-anchor="start" dominant-baseline="alphabetic" xml:space="preserve">Version</text></g><g><path fill="none" stroke="black" paint-order="fill stroke markers" d=" M 2893.829232124999 4100.827133054998 L 782.3407396424999 4100.827133054998" stroke-miterlimit="10" stroke-width="1.5706926250000002" stroke-dasharray="7.5393246000000005"/><g transform="translate(766.8222965074999,4100.827133054998) translate(-766.8222965074999,-4100.827133054998)"><path fill="black" stroke="none" paint-order="stroke fill markers" d=" M 782.5292227575 4092.973669929998 L 766.8222965074999 4100.827133054998 L 782.5292227575 4108.680596179998 Z"/></g></g><path fill="white" stroke="black" paint-order="fill stroke markers" d=" M 766.8222965074999 4150.775158529998 L 776.2464522574999 4150.775158529998 M 776.2464522574999 4129.099600304999 L 843.7354902012498 4129.099600304999 L 860.6989705512499 4146.063080654999 L 860.6989705512499 4172.450716754998 L 776.2464522574999 4172.450716754998 L 776.2464522574999 4129.099600304999 M 843.7354902012498 4129.099600304999 L 843.7354902012498 4146.063080654999 L 860.6989705512499 4146.063080654999" stroke-miterlimit="10" stroke-width="1.5706926250000002" stroke-dasharray=""/><g><text fill="blue" stroke="none" font-family="sans-serif" font-size="11pt" font-style="normal" font-weight="normal" text-decoration="normal" x="802.6340883574999" y="4155.487236404999" text-anchor="start" dominant-baseline="alphabetic" xml:space="preserve">After</text></g><g><text fill="black" stroke="none" font-family="sans-serif" font-size="11pt" font-style="normal" font-weight="normal" text-decoration="normal" x="199.284387189375" y="4217.686664354998" text-anchor="start" dominant-baseline="alphabetic" xml:space="preserve"></text></g><g><path fill="none" stroke="black" paint-order="fill stroke markers" d=" M 292.0263925575 4225.225988954998 L 122.06082495624999 4225.225988954998" stroke-miterlimit="10" stroke-width="1.5706926250000002" stroke-dasharray="7.5393246000000005"/><g transform="translate(106.54238182124999,4225.225988954998) translate(-106.54238182124999,-4225.225988954998)"><path fill="black" stroke="none" paint-order="stroke fill markers" d=" M 122.24930807125 4217.372525829997 L 106.54238182124999 4225.225988954998 L 122.24930807125 4233.079452079998 Z"/></g></g><g><g/><path fill="none" stroke="black" paint-order="fill stroke markers" d=" M 942.98717771 493.2603119550002 L 1167.16691375375 493.2603119550002 L 1167.16691375375 615.7743367050002 L 942.98717771 615.7743367050002 L 942.98717771 493.2603119550002 Z" stroke-miterlimit="10" stroke-width="2.6926159285714286" stroke-dasharray=""/><path fill="white" stroke="black" paint-order="fill stroke markers" d=" M 942.98717771 493.2603119550002 L 942.98717771 515.8782857550002 L 1006.00801946 515.8782857550002 L 1017.31700636 504.56929885500017 L 1017.31700636 493.2603119550002 L 942.98717771 493.2603119550002" stroke-miterlimit="10" stroke-width="2.6926159285714286" stroke-dasharray=""/><text fill="black" stroke="none" font-family="sans-serif" font-size="8.8pt" font-style="normal" font-weight="bold" text-decoration="normal" x="961.83548921" y="508.3389611550002" text-anchor="start" dominant-baseline="alphabetic" xml:space="preserve">loop</text><text fill="black" stroke="none" font-family="sans-serif" font-size="8.8pt" font-style="normal" font-weight="bold" text-decoration="normal" x="1036.16531786" y="508.3389611550002" text-anchor="start" dominant-baseline="alphabetic" xml:space="preserve">[Batch requests]</text></g><g><g/><path fill="none" stroke="black" paint-order="fill stroke markers" d=" M 1291.433107763125 2048.9999431649994 L 2064.9791673331247 2048.9999431649994 L 2064.9791673331247 2205.4409286149994 L 1291.433107763125 2205.4409286149994 L 1291.433107763125 2048.9999431649994 Z" stroke-miterlimit="10" stroke-width="2.6926159285714286" stroke-dasharray=""/><path fill="white" stroke="black" paint-order="fill stroke markers" d=" M 1291.433107763125 2048.9999431649994 L 1291.433107763125 2071.6179169649995 L 1354.453949513125 2071.6179169649995 L 1365.762936413125 2060.3089300649995 L 1365.762936413125 2048.9999431649994 L 1291.433107763125 2048.9999431649994" stroke-miterlimit="10" stroke-width="2.6926159285714286" stroke-dasharray=""/><text fill="black" stroke="none" font-family="sans-serif" font-size="8.8pt" font-style="normal" font-weight="bold" text-decoration="normal" x="1310.281419263125" y="2064.0785923649996" text-anchor="start" dominant-baseline="alphabetic" xml:space="preserve">loop</text><text fill="black" stroke="none" font-family="sans-serif" font-size="8.8pt" font-style="normal" font-weight="bold" text-decoration="normal" x="1384.611247913125" y="2064.0785923649996" text-anchor="start" dominant-baseline="alphabetic" xml:space="preserve">[Wait txn commit version enter the MVCC window]</text></g><g><g/><path fill="none" stroke="black" paint-order="fill stroke markers" d=" M 2749.765487149999 3858.814813394998 L 3093.304378324999 3858.814813394998 L 3093.304378324999 4048.051860854998 L 2749.765487149999 4048.051860854998 L 2749.765487149999 3858.814813394998 Z" stroke-miterlimit="10" stroke-width="2.6926159285714286" stroke-dasharray=""/><path fill="white" stroke="black" paint-order="fill stroke markers" d=" M 2749.765487149999 3858.814813394998 L 2749.765487149999 3881.432787194998 L 2812.786328899999 3881.432787194998 L 2824.095315799999 3870.123800294998 L 2824.095315799999 3858.814813394998 L 2749.765487149999 3858.814813394998" stroke-miterlimit="10" stroke-width="2.6926159285714286" stroke-dasharray=""/><text fill="black" stroke="none" font-family="sans-serif" font-size="8.8pt" font-style="normal" font-weight="bold" text-decoration="normal" x="2768.613798649999" y="3873.8934625949983" text-anchor="start" dominant-baseline="alphabetic" xml:space="preserve">loop</text><text fill="black" stroke="none" font-family="sans-serif" font-size="8.8pt" font-style="normal" font-weight="bold" text-decoration="normal" x="2842.9436272999988" y="3873.8934625949983" text-anchor="start" dominant-baseline="alphabetic" xml:space="preserve">[Value not change]</text></g></g></g></svg>