<svg xmlns="http://www.w3.org/2000/svg" xmlns:xlink="http://www.w3.org/1999/xlink" width="1912" height="212" viewBox="0 0 1912 212">
  <defs>
    <path id="a" d="M22.551,151 L0.676,151 L0.676,10.082 L88.664,10.082 L88.664,30.004 L22.551,30.004 L22.551,73.266 L83.098,73.266 L83.098,92.602 L22.551,92.602 L22.551,151 Z M159.465,134.398 C177.629,134.398 187.98,120.922 187.98,97.777 C187.98,74.73 177.629,61.254 159.465,61.254 C141.203,61.254 130.949,74.73 130.949,97.777 C130.949,121.02 141.203,134.398 159.465,134.398 Z M159.465,153.051 C128.312,153.051 109.27,132.25 109.27,97.777 C109.27,63.5 128.41,42.602 159.465,42.602 C190.422,42.602 209.562,63.5 209.562,97.777 C209.562,132.25 190.52,153.051 159.465,153.051 Z M324.406,44.652 L324.406,151 L304.191,151 L304.191,134.105 L302.531,134.105 C297.355,146.215 286.516,153.051 270.402,153.051 C246.867,153.051 233.781,138.695 233.781,113.695 L233.781,44.652 L254.777,44.652 L254.777,108.227 C254.777,125.414 261.711,133.617 277.141,133.617 C294.133,133.617 303.41,123.559 303.41,106.859 L303.41,44.652 L324.406,44.652 Z M354.875,151 L354.875,44.652 L375.09,44.652 L375.09,61.547 L376.652,61.547 C381.828,49.73 392.375,42.602 408.391,42.602 C432.121,42.602 445.207,56.859 445.207,82.152 L445.207,151 L424.211,151 L424.211,87.426 C424.211,70.336 416.789,61.84 401.262,61.84 C385.734,61.84 375.871,72.191 375.871,88.793 L375.871,151 L354.875,151 Z M513.566,152.758 C486.516,152.758 469.426,131.469 469.426,97.777 C469.426,64.184 486.711,42.895 513.566,42.895 C528.117,42.895 540.422,49.828 546.184,61.547 L547.746,61.547 L547.746,3.148 L568.742,3.148 L568.742,151 L548.625,151 L548.625,134.203 L546.965,134.203 C540.617,145.824 528.215,152.758 513.566,152.758 Z M519.523,61.742 C501.848,61.742 491.105,75.414 491.105,97.777 C491.105,120.336 501.75,133.91 519.523,133.91 C537.199,133.91 548.137,120.141 548.137,97.875 C548.137,75.707 537.102,61.742 519.523,61.742 Z M634.953,135.082 C650.773,135.082 662.492,125.023 662.492,111.84 L662.492,102.953 L636.516,104.613 C621.867,105.59 615.227,110.57 615.227,119.945 C615.227,129.516 623.527,135.082 634.953,135.082 Z M629.582,152.758 C609.074,152.758 594.133,140.355 594.133,120.922 C594.133,101.781 608.391,90.746 633.684,89.184 L662.492,87.523 L662.492,78.344 C662.492,67.113 655.07,60.766 640.715,60.766 C628.996,60.766 620.891,65.062 618.547,72.582 L598.234,72.582 C600.383,54.32 617.57,42.602 641.691,42.602 C668.352,42.602 683.391,55.883 683.391,78.344 L683.391,151 L663.176,151 L663.176,136.059 L661.516,136.059 C655.168,146.703 643.547,152.758 629.582,152.758 Z M720.695,18.187 L741.691,18.187 L741.691,45.141 L764.738,45.141 L764.738,62.816 L741.691,62.816 L741.691,117.504 C741.691,128.637 746.281,133.52 756.73,133.52 C759.953,133.52 761.809,133.324 764.738,133.031 L764.738,150.512 C761.32,151.098 757.414,151.586 753.313,151.586 C729.973,151.586 720.695,143.383 720.695,122.875 L720.695,62.816 L703.801,62.816 L703.801,45.141 L720.695,45.141 L720.695,18.187 Z M789.836,151 L789.836,44.652 L810.734,44.652 L810.734,151 L789.836,151 Z M800.285,26 C792.473,26 786.711,20.434 786.711,13.207 C786.711,5.883 792.473,0.316 800.285,0.316 C808.098,0.316 813.859,5.883 813.859,13.207 C813.859,20.434 808.098,26 800.285,26 Z M886.516,134.398 C904.68,134.398 915.031,120.922 915.031,97.777 C915.031,74.73 904.68,61.254 886.516,61.254 C868.254,61.254 858,74.73 858,97.777 C858,121.02 868.254,134.398 886.516,134.398 Z M886.516,153.051 C855.363,153.051 836.32,132.25 836.32,97.777 C836.32,63.5 855.461,42.602 886.516,42.602 C917.473,42.602 936.613,63.5 936.613,97.777 C936.613,132.25 917.57,153.051 886.516,153.051 Z M961.809,151 L961.809,44.652 L982.023,44.652 L982.023,61.547 L983.586,61.547 C988.762,49.73 999.309,42.602 1015.324,42.602 C1039.055,42.602 1052.141,56.859 1052.141,82.152 L1052.141,151 L1031.145,151 L1031.145,87.426 C1031.145,70.336 1023.723,61.84 1008.195,61.84 C992.668,61.84 982.805,72.191 982.805,88.793 L982.805,151 L961.809,151 Z M1083.488,9.984 L1138.957,9.984 C1180.852,9.984 1205.07,35.375 1205.07,79.516 C1205.07,125.316 1181.145,151 1138.957,151 L1083.488,151 L1083.488,9.984 Z M1112.98,35.18 L1112.98,125.805 L1134.27,125.805 C1160.344,125.805 1174.992,109.789 1174.992,80.004 C1174.992,51.488 1159.855,35.18 1134.27,35.18 L1112.98,35.18 Z M1296.184,151 L1232.902,151 L1232.902,10.082 L1294.523,10.082 C1321.867,10.082 1338.176,23.461 1338.176,45.238 C1338.176,60.18 1327.141,73.168 1312.687,75.316 L1312.687,77.074 C1331.34,78.441 1344.914,92.504 1344.914,110.668 C1344.914,135.375 1326.262,151 1296.184,151 Z M1262.395,32.641 L1262.395,68.48 L1284.563,68.48 C1300.48,68.48 1309.172,61.937 1309.172,50.609 C1309.172,39.379 1301.066,32.641 1287.004,32.641 L1262.395,32.641 Z M1262.395,128.441 L1288.664,128.441 C1305.656,128.441 1314.836,121.313 1314.836,108.129 C1314.836,95.238 1305.363,88.402 1287.98,88.402 L1262.395,88.402 L1262.395,128.441 Z"/>
    <polygon id="c" points=".06 58.675 .06 47.261 90.643 47.261 90.643 .881 180.643 9.9 180.643 47.261 271.929 47.261 271.929 .881 432 17.63 432 58.675 .06 58.675"/>
    <polygon id="e" points=".06 60.412 90.643 47.135 90.643 .755 180.643 23.059 180.643 60.421 271.929 47.135 271.929 .755 432 41.096 432 82.323 271.929 60.018 180.643 72.016 90.643 60.018 .06 72.008 .06 60.412"/>
    <polygon id="g" points=".643 74.225 91.929 46.525 91.929 .145 252 65.85 252 105.789 91.929 60.697 .643 85.82"/>
  </defs>
  <g fill="none" fill-rule="evenodd">
    <g transform="translate(567 58)">
      <mask id="b" fill="white">
        <use xlink:href="#a"/>
      </mask>
      <polygon fill="#0081FF" points=".66 153.16 1345.02 153.16 1345.02 .28 .66 .28" mask="url(#b)"/>
    </g>
    <g transform="translate(0 150)">
      <mask id="d" fill="white">
        <use xlink:href="#c"/>
      </mask>
      <polygon fill="#0073E0" points=".06 58.76 432.06 58.76 432.06 .8 .06 .8" mask="url(#d)"/>
    </g>
    <g transform="translate(0 75)">
      <mask id="f" fill="white">
        <use xlink:href="#e"/>
      </mask>
      <polygon fill="#289DFC" points=".06 82.4 432.06 82.4 432.06 .68 .06 .68" mask="url(#f)"/>
    </g>
    <g transform="translate(180)">
      <mask id="h" fill="white">
        <use xlink:href="#g"/>
      </mask>
      <polygon fill="#9ACEFE" points=".54 105.8 252.06 105.8 252.06 .08 .54 .08" mask="url(#h)"/>
    </g>
  </g>
</svg>
